<?xml version="1.0" encoding="UTF-8"?>
<svg xmlns="http://www.w3.org/2000/svg" xmlns:xlink="http://www.w3.org/1999/xlink" width="27px" height="27px" viewBox="0 0 27 27" version="1.1">
<g id="surface1">
<path style=" stroke:none;fill-rule:nonzero;fill:rgb(67.450982%,31.764707%,3.921569%);fill-opacity:1;" d="M 10.457031 1.023438 C 10.53125 1.023438 10.601562 1.023438 10.679688 1.023438 C 11.5625 1.039062 12.488281 1.226562 13.273438 1.648438 C 13.300781 1.699219 13.324219 1.75 13.351562 1.800781 C 13.472656 1.800781 13.597656 1.800781 13.726562 1.800781 C 13.726562 1.75 13.726562 1.699219 13.726562 1.648438 C 14.664062 1.261719 15.5 1.03125 16.519531 1.023438 C 16.589844 1.019531 16.65625 1.019531 16.726562 1.019531 C 17.253906 1.023438 17.753906 1.089844 18.183594 1.410156 C 18.441406 1.769531 18.476562 2.113281 18.449219 2.550781 C 18.425781 2.597656 18.402344 2.648438 18.375 2.699219 C 19.410156 2.8125 19.410156 2.8125 20.398438 2.550781 C 20.425781 2.523438 20.449219 2.5 20.476562 2.476562 C 21.816406 2.324219 23.101562 2.589844 24.183594 3.445312 C 24.304688 3.566406 24.414062 3.691406 24.523438 3.824219 C 24.574219 3.871094 24.621094 3.921875 24.671875 3.96875 C 25.511719 4.824219 25.742188 5.859375 25.746094 7.015625 C 25.738281 7.652344 25.660156 8.28125 25.351562 8.851562 C 25.300781 8.851562 25.25 8.851562 25.199219 8.851562 C 25.164062 8.953125 25.164062 8.953125 25.128906 9.0625 C 25.078125 9.214844 25.027344 9.371094 24.976562 9.523438 C 25.039062 9.6875 25.039062 9.6875 25.125 9.824219 C 25.175781 9.824219 25.222656 9.824219 25.273438 9.824219 C 25.273438 9.875 25.273438 9.925781 25.273438 9.976562 C 25.347656 10 25.421875 10.023438 25.5 10.050781 C 25.558594 10.113281 25.558594 10.113281 25.621094 10.179688 C 25.792969 10.34375 25.933594 10.421875 26.140625 10.527344 C 26.453125 10.695312 26.585938 10.828125 26.699219 11.175781 C 26.800781 11.542969 26.761719 11.792969 26.625 12.148438 C 26.476562 12.371094 26.476562 12.371094 26.324219 12.523438 C 26.277344 12.523438 26.226562 12.523438 26.175781 12.523438 C 26.175781 12.574219 26.175781 12.625 26.175781 12.675781 C 26 12.699219 25.828125 12.722656 25.648438 12.75 C 25.664062 12.824219 25.679688 12.894531 25.695312 12.96875 C 25.71875 13.066406 25.738281 13.167969 25.757812 13.265625 C 25.789062 13.410156 25.789062 13.410156 25.820312 13.554688 C 25.945312 14.238281 25.960938 14.917969 25.960938 15.609375 C 25.960938 15.699219 25.960938 15.789062 25.960938 15.878906 C 25.957031 16.367188 25.941406 16.847656 25.902344 17.335938 C 25.875 17.714844 25.890625 18.015625 25.992188 18.378906 C 26.074219 18.742188 25.992188 19.046875 25.820312 19.375 C 25.53125 19.71875 25.269531 19.820312 24.835938 19.882812 C 24.617188 19.871094 24.429688 19.800781 24.226562 19.726562 C 24.199219 19.792969 24.175781 19.863281 24.148438 19.9375 C 23.816406 20.816406 23.410156 21.605469 22.761719 22.296875 C 22.636719 22.433594 22.636719 22.433594 22.515625 22.648438 C 22.191406 23.089844 21.707031 23.449219 21.226562 23.699219 C 21.0625 23.71875 21.0625 23.71875 20.902344 23.71875 C 20.382812 23.761719 20.089844 24.136719 19.765625 24.511719 C 19.496094 24.742188 19.253906 24.808594 18.898438 24.824219 C 18.535156 24.792969 18.308594 24.695312 18.066406 24.417969 C 17.933594 24.230469 17.8125 24.046875 17.699219 23.851562 C 17.648438 23.882812 17.59375 23.914062 17.542969 23.949219 C 17.472656 23.988281 17.40625 24.03125 17.335938 24.074219 C 17.265625 24.117188 17.199219 24.160156 17.128906 24.203125 C 16.949219 24.300781 16.949219 24.300781 16.800781 24.300781 C 16.800781 24.347656 16.800781 24.398438 16.800781 24.449219 C 16.589844 24.5625 16.382812 24.675781 16.171875 24.789062 C 16.113281 24.820312 16.054688 24.851562 15.992188 24.886719 C 15.90625 24.929688 15.90625 24.929688 15.820312 24.976562 C 15.765625 25.003906 15.714844 25.035156 15.660156 25.0625 C 15.523438 25.125 15.523438 25.125 15.375 25.125 C 15.375 25.175781 15.375 25.222656 15.375 25.273438 C 15.140625 25.390625 14.90625 25.5 14.671875 25.613281 C 14.574219 25.660156 14.574219 25.660156 14.472656 25.710938 C 13.945312 25.957031 13.492188 26.070312 12.925781 25.886719 C 12.722656 25.800781 12.527344 25.710938 12.328125 25.613281 C 12.261719 25.582031 12.191406 25.546875 12.121094 25.515625 C 11.957031 25.4375 11.789062 25.355469 11.625 25.273438 C 11.625 25.226562 11.625 25.175781 11.625 25.125 C 11.5625 25.105469 11.496094 25.085938 11.433594 25.066406 C 11.15625 24.96875 10.914062 24.84375 10.660156 24.703125 C 10.53125 24.632812 10.53125 24.632812 10.398438 24.558594 C 10.332031 24.523438 10.265625 24.488281 10.199219 24.449219 C 10.199219 24.402344 10.199219 24.351562 10.199219 24.300781 C 10.148438 24.28125 10.097656 24.261719 10.046875 24.242188 C 9.78125 24.132812 9.546875 23.996094 9.300781 23.851562 C 9.257812 23.917969 9.257812 23.917969 9.21875 23.988281 C 8.929688 24.453125 8.714844 24.652344 8.1875 24.816406 C 7.847656 24.828125 7.578125 24.761719 7.273438 24.601562 C 7.105469 24.441406 6.96875 24.261719 6.824219 24.074219 C 6.582031 23.820312 6.4375 23.765625 6.097656 23.757812 C 5.59375 23.726562 5.3125 23.425781 4.949219 23.101562 C 4.851562 23.023438 4.851562 23.023438 4.75 22.945312 C 4.539062 22.769531 4.421875 22.578125 4.273438 22.351562 C 4.214844 22.292969 4.15625 22.238281 4.097656 22.179688 C 3.472656 21.527344 3.066406 20.574219 2.773438 19.726562 C 2.714844 19.75 2.652344 19.777344 2.585938 19.804688 C 2.164062 19.917969 1.863281 19.871094 1.476562 19.667969 C 1.125 19.375 0.988281 19.046875 0.898438 18.601562 C 0.960938 18.417969 0.960938 18.417969 1.050781 18.226562 C 1.117188 17.875 1.125 17.574219 1.089844 17.21875 C 0.964844 15.789062 0.890625 14.128906 1.351562 12.75 C 1.175781 12.726562 1.003906 12.699219 0.824219 12.675781 C 0.824219 12.625 0.824219 12.574219 0.824219 12.523438 C 0.757812 12.496094 0.757812 12.496094 0.6875 12.46875 C 0.488281 12.355469 0.410156 12.277344 0.300781 12.074219 C 0.1875 11.601562 0.226562 11.234375 0.449219 10.800781 C 0.648438 10.589844 0.855469 10.484375 1.117188 10.367188 C 1.511719 10.179688 1.828125 9.84375 2.023438 9.449219 C 1.949219 9.3125 1.867188 9.183594 1.78125 9.050781 C 1.183594 8.042969 1.105469 6.773438 1.375 5.640625 C 1.664062 4.605469 2.378906 3.644531 3.296875 3.089844 C 3.714844 2.875 4.128906 2.710938 4.585938 2.589844 C 4.726562 2.5625 4.726562 2.5625 4.800781 2.476562 C 5.640625 2.378906 6.335938 2.378906 7.125 2.699219 C 7.335938 2.769531 7.4375 2.78125 7.652344 2.765625 C 7.734375 2.761719 7.734375 2.761719 7.824219 2.753906 C 7.882812 2.75 7.941406 2.746094 8 2.742188 C 8.089844 2.734375 8.089844 2.734375 8.183594 2.730469 C 8.332031 2.71875 8.476562 2.710938 8.625 2.699219 C 8.585938 2.625 8.585938 2.625 8.550781 2.550781 C 8.519531 2.140625 8.578125 1.859375 8.773438 1.5 C 9.238281 1.023438 9.832031 1.019531 10.457031 1.023438 Z M 10.457031 1.023438 "/>
<path style=" stroke:none;fill-rule:nonzero;fill:rgb(99.215686%,76.078433%,1.176471%);fill-opacity:1;" d="M 17.851562 8.851562 C 17.914062 8.894531 17.980469 8.9375 18.046875 8.980469 C 18.78125 9.488281 19.394531 10.074219 19.878906 10.820312 C 19.90625 10.859375 19.933594 10.902344 19.964844 10.949219 C 20.148438 11.242188 20.242188 11.515625 20.324219 11.851562 C 20.375 11.851562 20.425781 11.851562 20.476562 11.851562 C 20.480469 11.792969 20.484375 11.738281 20.488281 11.679688 C 20.527344 11.1875 20.574219 10.691406 20.625 10.199219 C 20.675781 10.199219 20.722656 10.199219 20.773438 10.199219 C 20.871094 10.339844 20.871094 10.339844 20.976562 10.53125 C 21.128906 10.800781 21.285156 11.019531 21.496094 11.246094 C 22.207031 12.128906 22.136719 13.738281 22.140625 14.808594 C 22.140625 14.894531 22.140625 14.980469 22.140625 15.070312 C 22.144531 16.359375 21.8125 17.722656 20.910156 18.699219 C 19.625 19.894531 18.117188 20.273438 16.417969 20.324219 C 15.914062 20.347656 15.585938 20.453125 15.167969 20.742188 C 14.386719 21.242188 13.214844 21.167969 12.339844 20.984375 C 11.945312 20.863281 11.542969 20.695312 11.25 20.398438 C 11.070312 20.367188 11.070312 20.367188 10.863281 20.359375 C 10.785156 20.355469 10.703125 20.351562 10.625 20.34375 C 10.539062 20.339844 10.457031 20.335938 10.367188 20.328125 C 8.621094 20.207031 7.042969 19.773438 5.835938 18.417969 C 5.40625 17.871094 5.023438 17.136719 5.023438 16.425781 C 4.976562 16.425781 4.925781 16.425781 4.875 16.425781 C 4.585938 14.980469 4.6875 12.640625 5.402344 11.332031 C 5.488281 11.21875 5.488281 11.21875 5.664062 11.03125 C 5.882812 10.785156 6.058594 10.558594 6.226562 10.273438 C 6.25 10.273438 6.273438 10.273438 6.300781 10.273438 C 6.382812 10.800781 6.464844 11.324219 6.523438 11.851562 C 6.574219 11.851562 6.625 11.851562 6.675781 11.851562 C 6.683594 11.796875 6.691406 11.742188 6.699219 11.6875 C 6.984375 10.488281 8.273438 9.371094 9.265625 8.734375 C 9.617188 8.527344 9.980469 8.351562 10.351562 8.175781 C 10.40625 8.144531 10.464844 8.117188 10.523438 8.089844 C 12.757812 7.007812 15.851562 7.453125 17.851562 8.851562 Z M 17.851562 8.851562 "/>
<path style=" stroke:none;fill-rule:nonzero;fill:rgb(99.215686%,98.823529%,98.431373%);fill-opacity:1;" d="M 10.457031 1.023438 C 10.53125 1.023438 10.601562 1.023438 10.679688 1.023438 C 11.5625 1.039062 12.488281 1.226562 13.273438 1.648438 C 13.300781 1.699219 13.324219 1.75 13.351562 1.800781 C 13.472656 1.800781 13.597656 1.800781 13.726562 1.800781 C 13.726562 1.75 13.726562 1.699219 13.726562 1.648438 C 14.664062 1.261719 15.5 1.03125 16.519531 1.023438 C 16.589844 1.019531 16.65625 1.019531 16.726562 1.019531 C 17.253906 1.023438 17.753906 1.089844 18.183594 1.410156 C 18.441406 1.769531 18.476562 2.113281 18.449219 2.550781 C 18.425781 2.597656 18.402344 2.648438 18.375 2.699219 C 19.410156 2.8125 19.410156 2.8125 20.398438 2.550781 C 20.425781 2.523438 20.449219 2.5 20.476562 2.476562 C 21.816406 2.324219 23.101562 2.589844 24.183594 3.445312 C 24.304688 3.566406 24.414062 3.691406 24.523438 3.824219 C 24.574219 3.871094 24.621094 3.921875 24.671875 3.96875 C 25.511719 4.824219 25.742188 5.859375 25.746094 7.015625 C 25.738281 7.652344 25.660156 8.28125 25.351562 8.851562 C 25.300781 8.851562 25.25 8.851562 25.199219 8.851562 C 25.164062 8.953125 25.164062 8.953125 25.128906 9.0625 C 25.078125 9.214844 25.027344 9.371094 24.976562 9.523438 C 25.039062 9.6875 25.039062 9.6875 25.125 9.824219 C 25.175781 9.824219 25.222656 9.824219 25.273438 9.824219 C 25.273438 9.875 25.273438 9.925781 25.273438 9.976562 C 25.347656 10 25.421875 10.023438 25.5 10.050781 C 25.558594 10.113281 25.558594 10.113281 25.621094 10.179688 C 25.792969 10.34375 25.933594 10.421875 26.140625 10.527344 C 26.453125 10.695312 26.585938 10.828125 26.699219 11.175781 C 26.800781 11.542969 26.761719 11.792969 26.625 12.148438 C 26.476562 12.371094 26.476562 12.371094 26.324219 12.523438 C 26.277344 12.523438 26.226562 12.523438 26.175781 12.523438 C 26.175781 12.574219 26.175781 12.625 26.175781 12.675781 C 26 12.699219 25.828125 12.722656 25.648438 12.75 C 25.664062 12.824219 25.679688 12.894531 25.695312 12.96875 C 25.71875 13.066406 25.738281 13.167969 25.757812 13.265625 C 25.789062 13.410156 25.789062 13.410156 25.820312 13.554688 C 25.945312 14.238281 25.960938 14.917969 25.960938 15.609375 C 25.960938 15.699219 25.960938 15.789062 25.960938 15.878906 C 25.957031 16.367188 25.941406 16.847656 25.902344 17.335938 C 25.875 17.714844 25.890625 18.015625 25.992188 18.378906 C 26.074219 18.742188 25.992188 19.046875 25.820312 19.375 C 25.53125 19.71875 25.269531 19.820312 24.835938 19.882812 C 24.617188 19.871094 24.429688 19.800781 24.226562 19.726562 C 24.199219 19.792969 24.175781 19.863281 24.148438 19.9375 C 23.816406 20.816406 23.410156 21.605469 22.761719 22.296875 C 22.636719 22.433594 22.636719 22.433594 22.515625 22.648438 C 22.191406 23.089844 21.707031 23.449219 21.226562 23.699219 C 21.0625 23.71875 21.0625 23.71875 20.902344 23.71875 C 20.382812 23.761719 20.089844 24.136719 19.765625 24.511719 C 19.496094 24.742188 19.253906 24.808594 18.898438 24.824219 C 18.535156 24.792969 18.308594 24.695312 18.066406 24.417969 C 17.933594 24.230469 17.8125 24.046875 17.699219 23.851562 C 17.648438 23.882812 17.59375 23.914062 17.542969 23.949219 C 17.472656 23.988281 17.40625 24.03125 17.335938 24.074219 C 17.265625 24.117188 17.199219 24.160156 17.128906 24.203125 C 16.949219 24.300781 16.949219 24.300781 16.800781 24.300781 C 16.800781 24.347656 16.800781 24.398438 16.800781 24.449219 C 16.589844 24.5625 16.382812 24.675781 16.171875 24.789062 C 16.113281 24.820312 16.054688 24.851562 15.992188 24.886719 C 15.90625 24.929688 15.90625 24.929688 15.820312 24.976562 C 15.765625 25.003906 15.714844 25.035156 15.660156 25.0625 C 15.523438 25.125 15.523438 25.125 15.375 25.125 C 15.375 25.175781 15.375 25.222656 15.375 25.273438 C 15.140625 25.390625 14.90625 25.5 14.671875 25.613281 C 14.574219 25.660156 14.574219 25.660156 14.472656 25.710938 C 13.945312 25.957031 13.492188 26.070312 12.925781 25.886719 C 12.722656 25.800781 12.527344 25.710938 12.328125 25.613281 C 12.261719 25.582031 12.191406 25.546875 12.121094 25.515625 C 11.957031 25.4375 11.789062 25.355469 11.625 25.273438 C 11.625 25.226562 11.625 25.175781 11.625 25.125 C 11.5625 25.105469 11.496094 25.085938 11.433594 25.066406 C 11.15625 24.96875 10.914062 24.84375 10.660156 24.703125 C 10.53125 24.632812 10.53125 24.632812 10.398438 24.558594 C 10.332031 24.523438 10.265625 24.488281 10.199219 24.449219 C 10.199219 24.402344 10.199219 24.351562 10.199219 24.300781 C 10.148438 24.28125 10.097656 24.261719 10.046875 24.242188 C 9.78125 24.132812 9.546875 23.996094 9.300781 23.851562 C 9.257812 23.917969 9.257812 23.917969 9.21875 23.988281 C 8.929688 24.453125 8.714844 24.652344 8.1875 24.816406 C 7.847656 24.828125 7.578125 24.761719 7.273438 24.601562 C 7.105469 24.441406 6.96875 24.261719 6.824219 24.074219 C 6.582031 23.820312 6.4375 23.765625 6.097656 23.757812 C 5.59375 23.726562 5.3125 23.425781 4.949219 23.101562 C 4.851562 23.023438 4.851562 23.023438 4.75 22.945312 C 4.539062 22.769531 4.421875 22.578125 4.273438 22.351562 C 4.214844 22.292969 4.15625 22.238281 4.097656 22.179688 C 3.472656 21.527344 3.066406 20.574219 2.773438 19.726562 C 2.714844 19.75 2.652344 19.777344 2.585938 19.804688 C 2.164062 19.917969 1.863281 19.871094 1.476562 19.667969 C 1.125 19.375 0.988281 19.046875 0.898438 18.601562 C 0.960938 18.417969 0.960938 18.417969 1.050781 18.226562 C 1.117188 17.875 1.125 17.574219 1.089844 17.21875 C 0.964844 15.789062 0.890625 14.128906 1.351562 12.75 C 1.175781 12.726562 1.003906 12.699219 0.824219 12.675781 C 0.824219 12.625 0.824219 12.574219 0.824219 12.523438 C 0.757812 12.496094 0.757812 12.496094 0.6875 12.46875 C 0.488281 12.355469 0.410156 12.277344 0.300781 12.074219 C 0.1875 11.601562 0.226562 11.234375 0.449219 10.800781 C 0.648438 10.589844 0.855469 10.484375 1.117188 10.367188 C 1.511719 10.179688 1.828125 9.84375 2.023438 9.449219 C 1.949219 9.3125 1.867188 9.183594 1.78125 9.050781 C 1.183594 8.042969 1.105469 6.773438 1.375 5.640625 C 1.664062 4.605469 2.378906 3.644531 3.296875 3.089844 C 3.714844 2.875 4.128906 2.710938 4.585938 2.589844 C 4.726562 2.5625 4.726562 2.5625 4.800781 2.476562 C 5.640625 2.378906 6.335938 2.378906 7.125 2.699219 C 7.335938 2.769531 7.4375 2.78125 7.652344 2.765625 C 7.734375 2.761719 7.734375 2.761719 7.824219 2.753906 C 7.882812 2.75 7.941406 2.746094 8 2.742188 C 8.089844 2.734375 8.089844 2.734375 8.183594 2.730469 C 8.332031 2.71875 8.476562 2.710938 8.625 2.699219 C 8.585938 2.625 8.585938 2.625 8.550781 2.550781 C 8.519531 2.140625 8.578125 1.859375 8.773438 1.5 C 9.238281 1.023438 9.832031 1.019531 10.457031 1.023438 Z M 9.75 2.25 C 9.941406 2.445312 10.140625 2.628906 10.351562 2.808594 C 10.644531 3.066406 10.898438 3.296875 11.023438 3.675781 C 10.953125 3.671875 10.882812 3.671875 10.808594 3.667969 C 9.753906 3.652344 8.746094 3.757812 7.722656 4.011719 C 7.332031 4.078125 7.015625 3.941406 6.648438 3.820312 C 5.875 3.597656 5.011719 3.527344 4.273438 3.898438 C 3.367188 4.402344 2.804688 5.089844 2.476562 6.074219 C 2.371094 7.082031 2.40625 7.933594 3 8.773438 C 3.085938 8.875 3.175781 8.976562 3.265625 9.074219 C 3.328125 9.148438 3.386719 9.222656 3.449219 9.300781 C 3.375 9.722656 3.121094 10.019531 2.859375 10.339844 C 2.816406 10.394531 2.773438 10.445312 2.730469 10.5 C 2.347656 10.953125 1.945312 11.265625 1.425781 11.550781 C 2.019531 11.75 2.824219 11.34375 3.375 11.101562 C 3.339844 11.152344 3.304688 11.207031 3.269531 11.261719 C 3.222656 11.332031 3.175781 11.40625 3.125 11.480469 C 3.082031 11.550781 3.035156 11.621094 2.988281 11.691406 C 2.722656 12.140625 2.578125 12.589844 2.464844 13.09375 C 2.453125 13.148438 2.441406 13.203125 2.425781 13.257812 C 2.324219 13.703125 2.238281 14.132812 2.242188 14.59375 C 2.242188 14.710938 2.242188 14.710938 2.242188 14.832031 C 2.242188 14.917969 2.246094 15.003906 2.246094 15.089844 C 2.246094 15.179688 2.246094 15.269531 2.246094 15.359375 C 2.246094 15.640625 2.25 15.921875 2.25 16.203125 C 2.253906 16.574219 2.253906 16.945312 2.253906 17.316406 C 2.253906 17.402344 2.257812 17.488281 2.257812 17.578125 C 2.257812 17.695312 2.257812 17.695312 2.257812 17.816406 C 2.257812 17.886719 2.257812 17.957031 2.257812 18.027344 C 2.25 18.226562 2.21875 18.40625 2.175781 18.601562 C 2.523438 18.492188 2.699219 18.316406 2.9375 18.046875 C 3.003906 17.976562 3.066406 17.902344 3.132812 17.828125 C 3.273438 17.660156 3.359375 17.519531 3.449219 17.324219 C 3.457031 17.371094 3.464844 17.417969 3.476562 17.46875 C 3.511719 17.683594 3.550781 17.902344 3.589844 18.117188 C 3.605469 18.191406 3.617188 18.265625 3.628906 18.34375 C 3.699219 18.734375 3.78125 19.117188 3.898438 19.5 C 3.949219 19.5 4 19.5 4.050781 19.5 C 4.058594 19.550781 4.066406 19.601562 4.074219 19.65625 C 4.335938 20.773438 5.1875 21.738281 6 22.5 C 6.222656 22.398438 6.398438 22.277344 6.582031 22.117188 C 6.648438 22.054688 6.648438 22.054688 6.71875 21.992188 C 6.753906 21.960938 6.789062 21.933594 6.824219 21.898438 C 6.839844 21.945312 6.851562 21.988281 6.863281 22.03125 C 7.074219 22.648438 7.445312 23.074219 7.875 23.550781 C 8.175781 23.433594 8.320312 23.238281 8.515625 22.988281 C 8.941406 22.441406 8.941406 22.441406 9.292969 22.398438 C 9.582031 22.433594 9.652344 22.507812 9.847656 22.714844 C 10.351562 23.199219 10.941406 23.515625 11.550781 23.851562 C 11.605469 23.882812 11.664062 23.914062 11.722656 23.945312 C 12.089844 24.144531 12.453125 24.339844 12.824219 24.523438 C 12.871094 24.546875 12.914062 24.570312 12.960938 24.597656 C 13.277344 24.75 13.46875 24.773438 13.800781 24.675781 C 13.988281 24.59375 14.164062 24.511719 14.34375 24.417969 C 14.421875 24.378906 14.421875 24.378906 14.5 24.335938 C 14.667969 24.25 14.832031 24.164062 15 24.074219 C 15.058594 24.046875 15.113281 24.015625 15.171875 23.984375 C 15.996094 23.550781 16.808594 23.089844 17.476562 22.425781 C 17.835938 22.433594 18.070312 22.503906 18.339844 22.75 C 18.554688 22.996094 18.730469 23.269531 18.898438 23.550781 C 19.492188 23.296875 19.855469 22.695312 20.101562 22.125 C 20.125 22.050781 20.148438 21.976562 20.175781 21.898438 C 20.398438 22.097656 20.621094 22.296875 20.851562 22.5 C 21.933594 21.957031 22.625 20.59375 23.023438 19.5 C 23.054688 19.425781 23.082031 19.355469 23.109375 19.28125 C 23.34375 18.644531 23.445312 17.992188 23.550781 17.324219 C 23.59375 17.390625 23.636719 17.457031 23.679688 17.523438 C 23.832031 17.757812 24.003906 17.964844 24.191406 18.171875 C 24.25 18.238281 24.308594 18.304688 24.367188 18.371094 C 24.519531 18.539062 24.519531 18.539062 24.75 18.601562 C 24.753906 18.0625 24.757812 17.523438 24.761719 16.984375 C 24.761719 16.800781 24.765625 16.617188 24.765625 16.4375 C 24.824219 14.195312 24.824219 14.195312 24.203125 12.070312 C 24.15625 11.984375 24.15625 11.984375 24.113281 11.898438 C 23.957031 11.628906 23.792969 11.363281 23.625 11.101562 C 23.714844 11.132812 23.804688 11.164062 23.898438 11.195312 C 24.019531 11.238281 24.140625 11.277344 24.261719 11.320312 C 24.320312 11.339844 24.382812 11.363281 24.441406 11.382812 C 24.824219 11.511719 25.175781 11.589844 25.574219 11.625 C 25.574219 11.574219 25.574219 11.527344 25.574219 11.476562 C 25.5 11.449219 25.425781 11.421875 25.351562 11.394531 C 24.578125 11.058594 24.035156 10.28125 23.597656 9.589844 C 23.535156 9.410156 23.554688 9.324219 23.625 9.148438 C 23.71875 9.027344 23.71875 9.027344 23.835938 8.90625 C 24.511719 8.144531 24.574219 7.28125 24.523438 6.300781 C 24.457031 5.582031 24.074219 4.964844 23.554688 4.476562 C 22.867188 3.917969 22.269531 3.648438 21.390625 3.652344 C 21.324219 3.648438 21.261719 3.648438 21.195312 3.648438 C 20.652344 3.648438 20.183594 3.746094 19.726562 4.050781 C 19.542969 4.042969 19.542969 4.042969 19.3125 4.003906 C 19.21875 3.988281 19.128906 3.972656 19.03125 3.957031 C 18.976562 3.949219 18.925781 3.941406 18.867188 3.929688 C 18.457031 3.863281 18.046875 3.804688 17.632812 3.742188 C 17.546875 3.726562 17.460938 3.714844 17.371094 3.699219 C 16.925781 3.632812 16.5 3.582031 16.050781 3.601562 C 16.210938 3.050781 16.566406 2.796875 17.023438 2.476562 C 17.074219 2.449219 17.125 2.425781 17.175781 2.398438 C 17.175781 2.351562 17.175781 2.300781 17.175781 2.25 C 15.824219 2.179688 14.808594 2.234375 13.734375 3.140625 C 13.574219 3.226562 13.574219 3.226562 13.390625 3.183594 C 13.199219 3.074219 13.199219 3.074219 13.023438 2.929688 C 12.78125 2.742188 12.539062 2.644531 12.253906 2.535156 C 12.203125 2.515625 12.152344 2.496094 12.101562 2.476562 C 11.742188 2.339844 11.460938 2.242188 11.074219 2.242188 C 11 2.242188 10.921875 2.242188 10.84375 2.242188 C 10.722656 2.246094 10.722656 2.246094 10.597656 2.246094 C 10.515625 2.246094 10.4375 2.246094 10.351562 2.246094 C 10.152344 2.246094 9.949219 2.25 9.75 2.25 Z M 9.75 2.25 "/>
<path style=" stroke:none;fill-rule:nonzero;fill:rgb(99.215686%,99.215686%,98.823529%);fill-opacity:1;" d="M 22.050781 14.324219 C 22.074219 14.324219 22.097656 14.324219 22.125 14.324219 C 22.152344 15.894531 22.039062 17.476562 20.910156 18.699219 C 19.625 19.894531 18.117188 20.273438 16.417969 20.324219 C 15.914062 20.347656 15.585938 20.453125 15.167969 20.742188 C 14.386719 21.242188 13.214844 21.167969 12.339844 20.984375 C 11.945312 20.863281 11.542969 20.695312 11.25 20.398438 C 11.070312 20.367188 11.070312 20.367188 10.863281 20.359375 C 10.785156 20.355469 10.703125 20.351562 10.625 20.34375 C 10.539062 20.339844 10.457031 20.335938 10.367188 20.328125 C 8.609375 20.203125 7.066406 19.765625 5.839844 18.425781 C 5.070312 17.472656 4.859375 16.269531 4.871094 15.074219 C 4.871094 15.007812 4.871094 14.945312 4.871094 14.878906 C 4.871094 14.71875 4.875 14.558594 4.875 14.398438 C 4.925781 14.398438 4.972656 14.398438 5.023438 14.398438 C 5.128906 14.507812 5.128906 14.507812 5.25 14.65625 C 5.726562 15.214844 6.226562 15.660156 6.871094 16.007812 C 6.917969 16.03125 6.964844 16.058594 7.011719 16.082031 C 7.597656 16.382812 8.164062 16.449219 8.816406 16.460938 C 8.96875 16.46875 8.96875 16.46875 9.226562 16.5 C 9.273438 16.574219 9.324219 16.648438 9.375 16.726562 C 9.601562 16.761719 9.601562 16.761719 9.824219 16.726562 C 9.898438 16.613281 9.898438 16.613281 9.976562 16.5 C 10.167969 16.457031 10.347656 16.429688 10.542969 16.410156 C 10.597656 16.40625 10.648438 16.398438 10.707031 16.394531 C 11.089844 16.351562 11.464844 16.335938 11.851562 16.351562 C 11.886719 16.460938 11.886719 16.460938 11.925781 16.574219 C 12.105469 16.71875 12.292969 16.84375 12.484375 16.972656 C 12.675781 17.101562 12.675781 17.101562 12.898438 17.28125 C 13.246094 17.460938 13.496094 17.507812 13.875 17.398438 C 14.34375 17.140625 14.851562 16.800781 15.148438 16.351562 C 15.359375 16.34375 15.550781 16.351562 15.757812 16.367188 C 15.816406 16.371094 15.871094 16.375 15.925781 16.378906 C 16.09375 16.394531 16.257812 16.410156 16.425781 16.425781 C 16.480469 16.429688 16.539062 16.433594 16.59375 16.4375 C 16.757812 16.453125 16.757812 16.453125 17.023438 16.5 C 17.097656 16.613281 17.097656 16.613281 17.175781 16.726562 C 17.398438 16.761719 17.398438 16.761719 17.625 16.726562 C 17.699219 16.613281 17.699219 16.613281 17.773438 16.5 C 17.960938 16.480469 18.136719 16.472656 18.324219 16.472656 C 18.925781 16.449219 19.40625 16.308594 19.949219 16.050781 C 20.019531 16.019531 20.089844 15.988281 20.160156 15.957031 C 20.917969 15.585938 21.53125 14.980469 22.050781 14.324219 Z M 22.050781 14.324219 "/>
<path style=" stroke:none;fill-rule:nonzero;fill:rgb(25.098041%,9.411765%,1.568628%);fill-opacity:1;" d="M 10.355469 10.84375 C 10.886719 11.136719 11.160156 11.570312 11.347656 12.144531 C 11.527344 12.9375 11.4375 13.714844 11 14.40625 C 10.746094 14.734375 10.445312 14.945312 10.050781 15.074219 C 9.652344 15.121094 9.410156 15.066406 9.074219 14.851562 C 8.589844 14.445312 8.351562 14.050781 8.25 13.425781 C 8.203125 12.601562 8.226562 11.832031 8.773438 11.175781 C 9.25 10.753906 9.753906 10.570312 10.355469 10.84375 Z M 10.355469 10.84375 "/>
<path style=" stroke:none;fill-rule:nonzero;fill:rgb(25.098041%,9.411765%,1.568628%);fill-opacity:1;" d="M 17.714844 10.820312 C 18.230469 11.140625 18.492188 11.46875 18.695312 12.039062 C 18.867188 12.855469 18.824219 13.683594 18.375 14.398438 C 18.113281 14.6875 17.832031 14.980469 17.429688 15.019531 C 16.628906 15.035156 16.628906 15.035156 16.273438 14.699219 C 15.675781 14.046875 15.542969 13.382812 15.574219 12.511719 C 15.609375 12.136719 15.703125 11.867188 15.898438 11.550781 C 15.945312 11.46875 15.992188 11.386719 16.039062 11.300781 C 16.464844 10.765625 17.074219 10.566406 17.714844 10.820312 Z M 17.714844 10.820312 "/>
<path style=" stroke:none;fill-rule:nonzero;fill:rgb(99.215686%,76.078433%,2.745098%);fill-opacity:1;" d="M 21.371094 3.648438 C 21.464844 3.644531 21.464844 3.644531 21.5625 3.640625 C 22.414062 3.636719 23.132812 4.101562 23.75 4.660156 C 24.421875 5.359375 24.554688 6.199219 24.546875 7.128906 C 24.492188 7.894531 24.242188 8.527344 23.699219 9.074219 C 23.601562 9.152344 23.503906 9.226562 23.398438 9.300781 C 23.125 8.941406 23.023438 8.621094 22.949219 8.175781 C 23.378906 8.101562 23.792969 8.09375 24.226562 8.101562 C 24.226562 8.050781 24.226562 8 24.226562 7.949219 C 24.183594 7.933594 24.140625 7.914062 24.097656 7.894531 C 23.886719 7.78125 23.71875 7.640625 23.535156 7.484375 C 23.171875 7.183594 22.800781 6.890625 22.425781 6.601562 C 22.5 6.402344 22.550781 6.316406 22.738281 6.203125 C 22.796875 6.179688 22.859375 6.15625 22.921875 6.132812 C 22.984375 6.105469 23.042969 6.082031 23.109375 6.054688 C 23.15625 6.035156 23.203125 6.019531 23.25 6 C 22.953125 5.28125 21.925781 4.9375 21.253906 4.648438 C 20.753906 4.445312 20.238281 4.285156 19.726562 4.125 C 20.128906 3.617188 20.773438 3.648438 21.371094 3.648438 Z M 21.371094 3.648438 "/>
<path style=" stroke:none;fill-rule:nonzero;fill:rgb(99.215686%,76.47059%,2.352941%);fill-opacity:1;" d="M 7.125 3.976562 C 7.175781 4.023438 7.222656 4.074219 7.273438 4.125 C 7.027344 4.210938 6.777344 4.289062 6.527344 4.363281 C 5.527344 4.671875 4.496094 5.085938 3.75 5.851562 C 3.75 5.898438 3.75 5.949219 3.75 6 C 4.023438 6.148438 4.292969 6.296875 4.574219 6.449219 C 4.574219 6.5 4.574219 6.550781 4.574219 6.601562 C 4.445312 6.71875 4.445312 6.71875 4.261719 6.863281 C 4.195312 6.914062 4.125 6.96875 4.054688 7.023438 C 3.890625 7.148438 3.726562 7.273438 3.5625 7.402344 C 3.515625 7.433594 3.472656 7.46875 3.425781 7.503906 C 3.339844 7.570312 3.253906 7.636719 3.164062 7.699219 C 2.933594 7.867188 2.933594 7.867188 2.773438 8.101562 C 2.824219 8.097656 2.871094 8.097656 2.921875 8.097656 C 3.304688 8.09375 3.667969 8.109375 4.050781 8.175781 C 4.003906 8.472656 3.910156 8.714844 3.78125 8.984375 C 3.75 9.058594 3.714844 9.132812 3.679688 9.207031 C 3.652344 9.261719 3.628906 9.316406 3.601562 9.375 C 3.011719 8.820312 2.484375 8.167969 2.433594 7.328125 C 2.429688 7.191406 2.429688 7.050781 2.433594 6.914062 C 2.433594 6.839844 2.433594 6.769531 2.433594 6.695312 C 2.464844 5.71875 2.820312 5.09375 3.523438 4.425781 C 3.753906 4.234375 3.976562 4.066406 4.238281 3.921875 C 4.292969 3.890625 4.347656 3.859375 4.402344 3.828125 C 5.234375 3.445312 6.308594 3.65625 7.125 3.976562 Z M 7.125 3.976562 "/>
<path style=" stroke:none;fill-rule:nonzero;fill:rgb(25.882354%,10.196079%,2.352941%);fill-opacity:1;" d="M 13.5 15.460938 C 13.59375 15.457031 13.683594 15.457031 13.78125 15.453125 C 14.328125 15.457031 14.65625 15.519531 15.046875 15.914062 C 15.148438 16.050781 15.148438 16.050781 15.21875 16.28125 C 15.113281 16.613281 14.902344 16.746094 14.625 16.949219 C 14.566406 16.996094 14.507812 17.046875 14.449219 17.09375 C 14.070312 17.394531 13.785156 17.550781 13.292969 17.511719 C 13.03125 17.453125 12.882812 17.34375 12.675781 17.175781 C 12.605469 17.128906 12.535156 17.085938 12.464844 17.039062 C 11.875 16.652344 11.875 16.652344 11.761719 16.308594 C 12.042969 15.492188 12.734375 15.441406 13.5 15.460938 Z M 13.5 15.460938 "/>
<path style=" stroke:none;fill-rule:nonzero;fill:rgb(31.37255%,17.254902%,10.980392%);fill-opacity:1;" d="M 16.378906 17.082031 C 16.574219 17.101562 16.574219 17.101562 16.714844 17.1875 C 16.800781 17.324219 16.800781 17.324219 16.785156 17.515625 C 16.726562 17.699219 16.726562 17.699219 16.574219 17.851562 C 16.328125 17.824219 16.226562 17.804688 16.050781 17.625 C 16.101562 17.109375 16.101562 17.109375 16.378906 17.082031 Z M 16.378906 17.082031 "/>
<path style=" stroke:none;fill-rule:nonzero;fill:rgb(30.980393%,16.470589%,10.588235%);fill-opacity:1;" d="M 10.351562 17.101562 C 10.558594 17.082031 10.683594 17.074219 10.867188 17.1875 C 10.949219 17.324219 10.949219 17.324219 10.9375 17.515625 C 10.875 17.699219 10.875 17.699219 10.726562 17.851562 C 10.476562 17.824219 10.378906 17.804688 10.199219 17.625 C 10.222656 17.429688 10.261719 17.277344 10.351562 17.101562 Z M 10.351562 17.101562 "/>
<path style=" stroke:none;fill-rule:nonzero;fill:rgb(31.37255%,15.686275%,5.098039%);fill-opacity:1;" d="M 17.394531 16.109375 C 17.625 16.125 17.625 16.125 17.773438 16.273438 C 17.792969 16.460938 17.792969 16.460938 17.773438 16.648438 C 17.625 16.800781 17.625 16.800781 17.398438 16.820312 C 17.175781 16.800781 17.175781 16.800781 17.023438 16.648438 C 17.078125 16.132812 17.078125 16.132812 17.394531 16.109375 Z M 17.394531 16.109375 "/>
<path style=" stroke:none;fill-rule:nonzero;fill:rgb(29.803923%,15.294118%,9.803922%);fill-opacity:1;" d="M 9 17.398438 C 9.417969 17.441406 9.417969 17.441406 9.523438 17.550781 C 9.546875 17.828125 9.535156 17.910156 9.375 18.148438 C 9.1875 18.171875 9.1875 18.171875 9 18.148438 C 8.851562 18 8.851562 18 8.832031 17.773438 C 8.851562 17.550781 8.851562 17.550781 9 17.398438 Z M 9 17.398438 "/>
<path style=" stroke:none;fill-rule:nonzero;fill:rgb(30.19608%,14.509805%,4.313726%);fill-opacity:1;" d="M 9.375 16.125 C 9.648438 16.152344 9.648438 16.152344 9.898438 16.199219 C 9.945312 16.375 9.945312 16.375 9.976562 16.574219 C 9.902344 16.6875 9.902344 16.6875 9.824219 16.800781 C 9.601562 16.824219 9.601562 16.824219 9.375 16.800781 C 9.226562 16.648438 9.226562 16.648438 9.207031 16.460938 C 9.226562 16.273438 9.226562 16.273438 9.375 16.125 Z M 9.375 16.125 "/>
<path style=" stroke:none;fill-rule:nonzero;fill:rgb(29.019609%,14.509805%,9.019608%);fill-opacity:1;" d="M 17.625 17.398438 C 18.042969 17.441406 18.042969 17.441406 18.148438 17.550781 C 18.171875 17.828125 18.160156 17.910156 18 18.148438 C 17.8125 18.179688 17.8125 18.179688 17.625 18.148438 C 17.464844 17.910156 17.445312 17.828125 17.476562 17.550781 C 17.523438 17.5 17.574219 17.449219 17.625 17.398438 Z M 17.625 17.398438 "/>
<path style=" stroke:none;fill-rule:nonzero;fill:rgb(68.627453%,33.725491%,9.019608%);fill-opacity:1;" d="M 24.824219 11.101562 C 24.863281 11.132812 24.90625 11.167969 24.945312 11.203125 C 25.148438 11.339844 25.339844 11.40625 25.574219 11.476562 C 25.574219 11.523438 25.574219 11.574219 25.574219 11.625 C 25.441406 11.605469 25.304688 11.582031 25.171875 11.558594 C 25.097656 11.546875 25.023438 11.535156 24.945312 11.523438 C 24.75 11.476562 24.75 11.476562 24.601562 11.324219 C 24.675781 11.25 24.75 11.175781 24.824219 11.101562 Z M 24.824219 11.101562 "/>
<path style=" stroke:none;fill-rule:nonzero;fill:rgb(80.000001%,57.647061%,42.745098%);fill-opacity:1;" d="M 2.109375 11.265625 C 2.214844 11.292969 2.214844 11.292969 2.324219 11.324219 C 2.425781 11.351562 2.523438 11.375 2.625 11.398438 C 2.46875 11.441406 2.308594 11.480469 2.152344 11.515625 C 2.0625 11.539062 1.976562 11.5625 1.886719 11.582031 C 1.648438 11.625 1.648438 11.625 1.425781 11.550781 C 1.8125 11.246094 1.8125 11.246094 2.109375 11.265625 Z M 2.109375 11.265625 "/>
<path style=" stroke:none;fill-rule:nonzero;fill:rgb(74.901962%,46.666667%,27.058825%);fill-opacity:1;" d="M 3.523438 17.023438 C 3.574219 17.023438 3.625 17.023438 3.675781 17.023438 C 3.675781 17.421875 3.675781 17.816406 3.675781 18.226562 C 3.648438 18.226562 3.625 18.226562 3.601562 18.226562 C 3.574219 18.039062 3.546875 17.851562 3.519531 17.667969 C 3.511719 17.613281 3.503906 17.5625 3.496094 17.507812 C 3.476562 17.371094 3.464844 17.234375 3.449219 17.101562 C 3.476562 17.074219 3.5 17.050781 3.523438 17.023438 Z M 3.523438 17.023438 "/>
<path style=" stroke:none;fill-rule:nonzero;fill:rgb(34.117648%,17.647059%,1.960784%);fill-opacity:1;" d="M 16.5 10.875 C 16.550781 10.898438 16.597656 10.925781 16.648438 10.949219 C 16.453125 11.148438 16.253906 11.347656 16.050781 11.550781 C 16.050781 11.324219 16.050781 11.324219 16.234375 11.128906 C 16.296875 11.070312 16.359375 11.011719 16.425781 10.949219 C 16.449219 10.925781 16.472656 10.902344 16.5 10.875 Z M 16.5 10.875 "/>
<path style=" stroke:none;fill-rule:nonzero;fill:rgb(82.745099%,63.921571%,50.980395%);fill-opacity:1;" d="M 24.75 11.398438 C 24.859375 11.398438 24.96875 11.398438 25.078125 11.394531 C 25.140625 11.394531 25.199219 11.394531 25.261719 11.394531 C 25.425781 11.398438 25.425781 11.398438 25.574219 11.476562 C 25.574219 11.523438 25.574219 11.574219 25.574219 11.625 C 25.304688 11.574219 25.03125 11.527344 24.75 11.476562 C 24.75 11.449219 24.75 11.425781 24.75 11.398438 Z M 24.75 11.398438 "/>
</g>
</svg>
