<?xml version="1.0" encoding="utf-8"?>
<!-- Generator: Adobe Illustrator 28.0.0, SVG Export Plug-In . SVG Version: 6.00 Build 0)  -->
<svg version="1.1" id="Layer_1" xmlns="http://www.w3.org/2000/svg" xmlns:xlink="http://www.w3.org/1999/xlink" x="0px" y="0px"
	 width="26px" height="27px" viewBox="0 0 26 27" style="enable-background:new 0 0 26 27;" xml:space="preserve">
<style type="text/css">
	.st0{fill-rule:evenodd;clip-rule:evenodd;fill:#38D1FF;}
</style>
<path class="st0" d="M2.8,2.5c0-1.1,0.9-2,2-2h16.4c1.1,0,2,0.9,2,2V11c-1.9,0.3-3.4,1.9-3.4,4v5.3H6.2V15c0-2-1.5-3.7-3.4-4
	C2.8,11,2.8,2.5,2.8,2.5z M21.5,22h-17v-7.1c0-1.2-1-2.2-2.2-2.2s-2.2,1-2.2,2.2V23v1.2v1.2c0,0.6,0.4,1,1,1h24c0.6,0,1-0.4,1-1
	v-1.2c0,0,0,0,0-0.1v-9.3c0-1.2-1-2.2-2.2-2.2s-2.2,1-2.2,2.2V22H21.5z"/>
</svg>
