<?xml version="1.0" encoding="UTF-8"?>
<svg version="1.1" xmlns="http://www.w3.org/2000/svg" width="19" height="25">
<path d="M0 0 C6.27 0 12.54 0 19 0 C19 8.25 19 16.5 19 25 C12.73 25 6.46 25 0 25 C0 16.75 0 8.5 0 0 Z M2 4 C2 9.94 2 15.88 2 22 C6.95 22 11.9 22 17 22 C17 16.06 17 10.12 17 4 C12.05 4 7.1 4 2 4 Z " fill="#FEFEFE" transform="translate(0,0)"/>
<path d="M0 0 C2 2 2 2 2.3125 4.9375 C2 8 2 8 0.8125 9.875 C-1.65507108 11.40659584 -3.14519831 11.42822025 -6 11 C-7.8125 9.875 -7.8125 9.875 -9 8 C-9.4375 5 -9.4375 5 -9 2 C-6.12524616 -1.3006433 -4.03854228 -1.38160657 0 0 Z " fill="#E2E2E2" transform="translate(13,8)"/>
</svg>
