<?xml version="1.0" encoding="UTF-8"?>
<svg version="1.1" xmlns="http://www.w3.org/2000/svg" width="32" height="27">
<path d="M0 0 C2.31 0 4.62 0 7 0 C7 0.66 7 1.32 7 2 C5.35 2 3.7 2 2 2 C2 2.66 2 3.32 2 4 C2.66 4.33 3.32 4.66 4 5 C4 5.99 4 6.98 4 8 C1.36 8.33 -1.28 8.66 -4 9 C-4 9.99 -4 10.98 -4 12 C-1.03 12 1.94 12 5 12 C5 10.02 5 8.04 5 6 C5.66 6 6.32 6 7 6 C7.24091535 13.2274605 6.34495828 19.90294338 5 27 C3.52093108 27.02689216 2.04172517 27.04634621 0.5625 27.0625 C-0.67306641 27.07990234 -0.67306641 27.07990234 -1.93359375 27.09765625 C-4 27 -4 27 -5 26 C-5.40403485 23.58168921 -5.75352086 21.18063589 -6.0625 18.75 C-6.19881836 17.74646484 -6.19881836 17.74646484 -6.33789062 16.72265625 C-6.80791334 13.1250388 -7.10546293 9.62792471 -7 6 C-5.5459375 5.62875 -5.5459375 5.62875 -4.0625 5.25 C-2.5465625 4.63125 -2.5465625 4.63125 -1 4 C-0.03122943 1.96756452 -0.03122943 1.96756452 0 0 Z M-4 15 C-3.67 18.3 -3.34 21.6 -3 25 C-1.02 25 0.96 25 3 25 C3.33 21.7 3.66 18.4 4 15 C1.36 15 -1.28 15 -4 15 Z " fill="#E5E5E5" transform="translate(25,0)"/>
<path d="M0 0 C2.0625 2.3125 2.0625 2.3125 3 5 C2.74756206 8.5341312 1.99789249 10.00316126 0 13 C-3.2578125 13.29296875 -3.2578125 13.29296875 -7.125 13.1875 C-9.04699219 13.14689453 -9.04699219 13.14689453 -11.0078125 13.10546875 C-11.99523437 13.07066406 -12.98265625 13.03585938 -14 13 C-16.28723644 8.98188193 -16.0697376 6.52581294 -15 2 C-11.29131509 -3.2981213 -5.30831771 -2.28302647 0 0 Z M-11 1 C-11.99 2.485 -11.99 2.485 -13 4 C-9.04 4 -5.08 4 -1 4 C-1 3.34 -1 2.68 -1 2 C-3.21295616 0.89352192 -4.54672699 0.80411632 -7 0.75 C-8.051875 0.71132812 -8.051875 0.71132812 -9.125 0.671875 C-9.74375 0.78015625 -10.3625 0.8884375 -11 1 Z M-14 6 C-14 6.66 -14 7.32 -14 8 C-9.05 8 -4.1 8 1 8 C1 7.34 1 6.68 1 6 C-3.95 6 -8.9 6 -14 6 Z M-13 10 C-13 10.33 -13 10.66 -13 11 C-9.04 11 -5.08 11 -1 11 C-1 10.67 -1 10.34 -1 10 C-4.96 10 -8.92 10 -13 10 Z " fill="#E5E5E5" transform="translate(16,14)"/>
</svg>
