<?xml version="1.0" encoding="UTF-8"?>
<svg version="1.1" xmlns="http://www.w3.org/2000/svg" width="25" height="21">
<path d="M0 0 C3.47914941 -0.02887814 6.95826831 -0.04675687 10.4375 -0.0625 C11.92733398 -0.07506836 11.92733398 -0.07506836 13.44726562 -0.08789062 C14.39150391 -0.09111328 15.33574219 -0.09433594 16.30859375 -0.09765625 C17.62041626 -0.10551147 17.62041626 -0.10551147 18.95874023 -0.11352539 C21 0 21 0 22 1 C23.16066097 7.83500347 23 13.89012608 23 21 C14.75 21 6.5 21 -2 21 C-2 7.5 -2 7.5 0 0 Z M1 2 C0.95745644 3.99954746 0.95919217 6.00041636 1 8 C1.33 8.33 1.66 8.66 2 9 C2.45459858 11.65463121 2.70243238 14.32189138 3 17 C7.95 17 12.9 17 18 17 C18.144375 15.700625 18.28875 14.40125 18.4375 13.0625 C18.875 9.125 18.875 9.125 20 8 C20.04080783 6.00041636 20.04254356 3.99954746 20 2 C16.96570323 0.48285161 13.82398333 0.85636084 10.5 0.875 C9.81035156 0.87113281 9.12070313 0.86726563 8.41015625 0.86328125 C4.57833786 0.80959134 4.57833786 0.80959134 1 2 Z M-1 10 C-1.02689216 11.47906892 -1.04634621 12.95827483 -1.0625 14.4375 C-1.07410156 15.26121094 -1.08570312 16.08492187 -1.09765625 16.93359375 C-1.23267348 18.99163938 -1.23267348 18.99163938 0 20 C1.54955559 20.09899523 3.10353673 20.13079524 4.65625 20.1328125 C5.59597656 20.13410156 6.53570313 20.13539062 7.50390625 20.13671875 C8.98697266 20.13091797 8.98697266 20.13091797 10.5 20.125 C11.48871094 20.12886719 12.47742188 20.13273437 13.49609375 20.13671875 C14.90568359 20.13478516 14.90568359 20.13478516 16.34375 20.1328125 C17.64602539 20.13112061 17.64602539 20.13112061 18.97460938 20.12939453 C20.99604154 20.2241537 20.99604154 20.2241537 22 19 C22.07179964 17.48071962 22.08392007 15.95832518 22.0625 14.4375 C22.05347656 13.61121094 22.04445313 12.78492188 22.03515625 11.93359375 C22.02355469 11.29550781 22.01195313 10.65742188 22 10 C21.34 10 20.68 10 20 10 C19.67 12.64 19.34 15.28 19 18 C13.39 18 7.78 18 2 18 C1.67 15.36 1.34 12.72 1 10 C0.34 10 -0.32 10 -1 10 Z " fill="#FFFFFF" transform="translate(2,0)"/>
</svg>
