<?xml version="1.0" encoding="UTF-8"?>
<svg version="1.1" xmlns="http://www.w3.org/2000/svg" width="30" height="20">
<path d="M0 0 C9.9 0 19.8 0 30 0 C30 6.6 30 13.2 30 20 C20.1 20 10.2 20 0 20 C0 13.4 0 6.8 0 0 Z M2 2 C2 2.33 2 2.66 2 3 C10.58 3 19.16 3 28 3 C28 2.67 28 2.34 28 2 C19.42 2 10.84 2 2 2 Z M2 6 C2 9.96 2 13.92 2 18 C10.58 18 19.16 18 28 18 C28 14.04 28 10.08 28 6 C25.125109 5.8312433 22.25011104 5.66492885 19.375 5.5 C18.56675781 5.45230469 17.75851563 5.40460937 16.92578125 5.35546875 C9.24996861 4.45524691 9.24996861 4.45524691 2 6 Z " fill="#FFFFFF" transform="translate(0,0)"/>
<path d="M0 0 C1.65 0 3.3 0 5 0 C5.33 1.65 5.66 3.3 6 5 C3.69 5 1.38 5 -1 5 C-0.67 3.35 -0.34 1.7 0 0 Z " fill="#FFFFFF" transform="translate(21,12)"/>
<path d="M0 0 C2.64 0 5.28 0 8 0 C8 0.66 8 1.32 8 2 C5.36 2 2.72 2 0 2 C0 1.34 0 0.68 0 0 Z " fill="#FFFFFF" transform="translate(10,7)"/>
<path d="M0 0 C1.98 0 3.96 0 6 0 C5.67 0.66 5.34 1.32 5 2 C3.35 2 1.7 2 0 2 C0 1.34 0 0.68 0 0 Z " fill="#FFFFFF" transform="translate(3,7)"/>
</svg>
